# 3ds Max Wavefront OBJ Exporter v0.97b - (c)2007 guruware
# 创建的文件:29.01.2018 16:37:11

mtllib BHGY_JZ_XA_FZ_001.mtl

#
# object Material__3214
#

v  0.9904 3.6279 9.0806
v  -1.0283 3.6279 9.0806
v  -1.0283 3.3114 8.7209
v  0.6308 3.3114 8.7209
v  0.6308 3.3114 -0.0000
v  0.9904 3.6279 -0.0000
v  0.9904 3.6279 2.2702
v  0.6308 3.3114 2.2702
v  -1.0283 3.3114 -8.7209
v  -2.6873 3.3114 -8.7209
v  -3.0468 3.6279 -9.0805
v  -1.0283 3.6279 -9.0805
v  -2.6873 3.3114 -2.2701
v  -2.6873 3.3114 -0.0000
v  -3.0468 3.6279 -0.0000
v  -3.0468 3.6279 -2.2701
v  0.9904 3.6279 -9.0805
v  0.9904 3.6279 -6.8105
v  0.6308 3.3114 -6.8105
v  0.6308 3.3114 -8.7209
v  0.9904 3.6279 -4.5403
v  0.6308 3.3114 -4.5403
v  0.9904 3.6279 -2.2701
v  0.6308 3.3114 -2.2701
v  0.9904 3.6279 6.8104
v  0.6308 3.3114 6.8104
v  0.9904 3.6279 4.5403
v  0.6308 3.3114 4.5403
v  -2.6873 3.3114 6.8104
v  -2.6873 3.3114 8.7209
v  -3.0468 3.6279 9.0806
v  -3.0468 3.6279 6.8104
v  -2.6873 3.3114 4.5403
v  -3.0468 3.6279 4.5403
v  -3.0468 3.6279 2.2702
v  -2.6873 3.3114 2.2702
v  -3.0468 3.6279 -6.8105
v  -2.6873 3.3114 -6.8105
v  -2.6873 3.3114 -4.5403
v  -3.0468 3.6279 -4.5403
v  0.4809 2.9114 5.0025
v  0.4058 2.9114 4.8726
v  0.4058 0.5072 4.8726
v  0.4809 0.5072 5.0025
v  0.6308 2.9114 5.0025
v  0.6308 0.5072 5.0025
v  0.7058 2.9114 4.8726
v  0.7058 0.5072 4.8726
v  0.6308 2.9114 4.7426
v  0.6308 0.5072 4.7426
v  0.4809 2.9114 4.7426
v  0.4809 0.5072 4.7426
v  0.4809 2.9114 1.7541
v  0.4058 2.9114 1.6241
v  0.4058 0.5072 1.6241
v  0.4809 0.5072 1.7541
v  0.6308 2.9114 1.7541
v  0.6308 0.5072 1.7541
v  0.7058 2.9114 1.6241
v  0.7058 0.5072 1.6241
v  0.6308 2.9114 1.4943
v  0.6308 0.5072 1.4943
v  0.4809 2.9114 1.4943
v  0.4809 0.5072 1.4943
v  0.4809 2.9114 -1.4944
v  0.4058 2.9114 -1.6242
v  0.4058 0.5072 -1.6242
v  0.4809 0.5072 -1.4944
v  0.6308 2.9114 -1.4944
v  0.6308 0.5072 -1.4944
v  0.7058 2.9114 -1.6242
v  0.7058 0.5072 -1.6242
v  0.6308 2.9114 -1.7540
v  0.6308 0.5072 -1.7540
v  0.4809 2.9114 -1.7540
v  0.4809 0.5072 -1.7540
v  0.4809 2.9114 -4.7426
v  0.4058 2.9114 -4.8725
v  0.4058 0.5072 -4.8725
v  0.4809 0.5072 -4.7426
v  0.6308 2.9114 -4.7426
v  0.6308 0.5072 -4.7426
v  0.7058 2.9114 -4.8725
v  0.7058 0.5072 -4.8725
v  0.6308 2.9114 -5.0024
v  0.6308 0.5072 -5.0024
v  0.4809 2.9114 -5.0024
v  0.4809 0.5072 -5.0024
v  0.6309 2.9115 6.5208
v  0.6309 1.4434 6.5208
v  0.6309 1.4434 4.8726
v  0.6309 2.9115 4.8726
v  0.6309 2.9115 3.2484
v  0.6309 1.4434 3.2484
v  0.6309 1.4435 1.6241
v  0.6309 2.9115 1.6241
v  0.6309 2.9115 8.1210
v  0.6309 1.4434 8.1210
v  0.6309 2.9115 -6.5240
v  0.6309 2.9115 -4.8725
v  0.6309 1.4435 -4.8725
v  0.6309 1.4435 -6.5240
v  0.6309 2.9115 -3.2484
v  0.6309 2.9115 -1.6242
v  0.6309 1.4435 -1.6242
v  0.6309 1.4435 -3.2484
v  0.6309 1.4435 -8.1209
v  0.6309 2.9115 -8.1209
v  0.6309 0.5234 -1.6242
v  0.6309 0.5234 1.6241
v  0.6551 1.4434 -6.4969
v  0.6551 1.4434 -4.8725
v  0.6551 0.5233 -4.8725
v  0.6551 0.5233 -6.4969
v  0.6551 1.4434 -3.2484
v  0.6551 1.4434 -1.6242
v  0.6551 0.5233 -1.6242
v  0.6551 0.5233 -3.2484
v  0.6551 1.4434 -8.1210
v  0.6551 0.5233 -8.1210
v  0.6551 0.5233 4.8726
v  0.6551 1.4434 4.8726
v  0.6551 1.4434 6.4968
v  0.6551 0.5233 6.4968
v  0.6551 0.5233 1.6241
v  0.6551 1.4434 1.6241
v  0.6551 1.4434 3.2484
v  0.6551 0.5233 3.2484
v  0.6551 1.4434 8.1210
v  0.6551 0.5233 8.1210
v  0.6551 3.3114 -6.4969
v  0.6551 3.3114 -4.8725
v  0.6551 2.9114 -4.8725
v  0.6551 2.9114 -6.4969
v  0.6551 3.3114 -3.2484
v  0.6551 3.3114 -1.6242
v  0.6551 2.9114 -1.6242
v  0.6551 2.9114 -3.2484
v  0.6551 3.3114 -8.1210
v  0.6551 2.9114 -8.1210
v  0.6551 3.3114 1.6241
v  0.6551 2.9114 1.6241
v  0.6551 2.9114 4.8726
v  0.6551 3.3114 4.8726
v  0.6551 3.3114 6.4968
v  0.6551 2.9114 6.4968
v  0.6551 3.3114 3.2484
v  0.6551 2.9114 3.2484
v  0.6551 3.3114 8.1210
v  0.6551 2.9114 8.1210
v  0.6309 0.5233 8.7209
v  0.6309 3.3114 8.7209
v  -2.6873 0.5233 8.7209
v  -2.6873 0.5233 -8.7209
v  0.6309 3.3114 -8.7209
v  0.6309 0.5233 -8.7209
v  0.6551 3.3114 8.7209
v  0.6551 0.5233 8.7209
v  0.6551 0.5233 -8.7209
v  0.6551 3.3114 -8.7209
v  0.6309 1.4434 -6.4969
v  0.6309 1.4434 -8.1210
v  0.6309 1.4434 -4.8725
v  0.6309 1.4434 -3.2484
v  0.6309 1.4434 -1.6242
v  0.6309 0.5233 -1.6242
v  0.6309 0.5233 -3.2484
v  0.6309 0.5233 -4.8725
v  0.6309 0.5233 -6.4969
v  0.6309 0.5233 -8.1210
v  0.6309 0.5233 6.4968
v  0.6309 0.5233 8.1210
v  0.6309 0.5233 4.8726
v  0.6309 0.5233 3.2484
v  0.6309 0.5233 1.6241
v  0.6309 1.4434 1.6241
v  0.6309 1.4434 6.4968
v  0.6309 3.3114 -6.4969
v  0.6309 3.3114 -8.1210
v  0.6309 3.3114 -4.8725
v  0.6309 3.3114 -3.2484
v  0.6309 3.3114 -1.6242
v  0.6309 3.3114 1.6241
v  0.6309 3.3114 3.2484
v  0.6309 3.3114 4.8726
v  0.6309 3.3114 6.4968
v  0.6309 3.3114 8.1210
v  0.6309 2.9114 6.4968
v  0.6309 2.9114 8.1210
v  0.6309 2.9114 4.8726
v  0.6309 2.9114 3.2484
v  0.6309 2.9114 1.6241
v  0.6309 2.9114 -1.6242
v  0.6309 2.9114 -3.2484
v  0.6309 2.9114 -4.8725
v  0.6309 2.9114 -6.4969
v  0.6309 2.9114 -8.1210
v  0.9717 0.0233 9.0619
v  0.9717 0.5233 9.0619
v  -3.0283 0.5233 9.0619
v  -3.0283 0.0233 9.0619
v  0.9717 0.5233 -9.0620
v  0.9717 0.0233 -9.0620
v  -3.0283 0.0233 -9.0620
v  -3.0283 0.5233 -9.0620
v  0.6308 0.5233 8.7209
v  0.6308 0.5233 -8.7209
v  0.9904 3.7702 9.0806
v  0.4451 4.4186 8.5352
v  -2.5014 4.4186 8.5352
v  -3.0468 3.7702 9.0806
v  0.9904 3.7702 -9.0805
v  0.4451 4.4186 -8.5352
v  -3.0468 3.7702 -9.0805
v  -2.5014 4.4186 -8.5352
v  -2.5016 4.4186 -8.5352
v  -2.5016 4.6186 -8.5352
v  0.4451 4.6186 -8.5352
v  -2.5016 4.4186 8.5352
v  -2.5016 4.6186 8.5352
v  0.4451 4.6186 8.5352
v  0.2451 4.6186 8.3353
v  0.2451 4.4186 8.3353
v  -2.3015 4.4186 8.3353
v  -2.3015 4.6186 8.3353
v  -2.3015 4.4186 -8.3352
v  -2.3015 4.6186 -8.3352
v  0.2451 4.4186 -8.3352
v  0.2451 4.6186 -8.3352
# 229 vertices

vn 0.0000 -0.7507 0.6606
vn 0.6606 -0.7507 -0.0000
vn 0.0000 -0.7507 -0.6606
vn -0.6606 -0.7507 -0.0000
vn -0.8660 0.0000 0.5000
vn 0.0000 0.0000 1.0000
vn 0.8660 0.0000 0.5000
vn 0.8660 0.0000 -0.5001
vn 0.0000 0.0000 -1.0000
vn -0.8660 0.0000 -0.5001
vn 1.0000 0.0000 -0.0000
vn -1.0000 0.0000 -0.0000
vn 0.0000 1.0000 -0.0000
vn 0.0000 -1.0000 -0.0000
vn 0.0000 0.6437 0.7653
vn 0.7653 0.6437 -0.0000
vn 0.0000 0.6437 -0.7653
vn -0.7653 0.6437 -0.0000
# 18 vertex normals

vt 0.7481 -0.8911 0.0000
vt 0.9959 -0.8911 0.0000
vt 0.9959 -0.9303 0.0000
vt 0.7951 -0.9303 0.0000
vt 0.9982 -0.9289 0.0000
vt 0.9982 -0.8911 0.0000
vt 0.7522 -0.8911 0.0000
vt 0.7522 -0.9289 0.0000
vt 0.7529 -0.8911 0.0000
vt 0.9980 -0.8911 0.0000
vt 0.9980 -0.9289 0.0000
vt 0.7727 -0.9289 0.0000
vt 1.5198 0.4689 0.0000
vt 1.5198 0.4756 0.0000
vt 1.3199 0.4756 0.0000
vt 1.3199 0.4689 0.0000
vt 1.5198 0.4624 0.0000
vt 1.3203 0.4624 0.0000
vt 1.5197 0.4760 0.0000
vt 1.5197 0.4826 0.0000
vt 1.3199 0.4826 0.0000
vt 1.3199 0.4760 0.0000
vt 1.5197 0.4693 0.0000
vt 1.3199 0.4693 0.0000
vt 1.5197 0.4625 0.0000
vt 1.3199 0.4625 0.0000
vt 1.5198 0.4825 0.0000
vt 1.3199 0.4825 0.0000
vt 0.4534 0.7976 0.0000
vt 0.4534 0.4873 0.0000
vt 0.6672 0.4873 0.0000
vt 0.6672 0.7976 0.0000
vt 0.6537 0.7976 0.0000
vt 0.6537 0.4873 0.0000
vt 0.6538 0.4873 0.0000
vt 0.6538 0.7976 0.0000
vt 1.0132 -0.5257 0.0000
vt 1.0132 -0.1300 0.0000
vt 0.6351 -0.1300 0.0000
vt 0.6351 -0.5257 0.0000
vt 3.0987 0.5028 1.1636
vt 2.4490 0.5028 1.1636
vt 2.4490 0.2983 1.1636
vt 3.0987 0.2983 1.1636
vt 1.7994 0.5028 1.1636
vt 1.1497 0.5028 1.1636
vt 1.1497 0.2983 1.1636
vt 1.7994 0.2983 1.1636
vt 3.7484 0.5028 1.1636
vt 3.7484 0.2983 1.1636
vt -1.4490 0.2983 1.1636
vt -1.4490 0.5028 1.1636
vt -2.0987 0.5028 1.1636
vt -2.0987 0.2983 1.1636
vt -0.1497 0.2983 1.1636
vt -0.1497 0.5028 1.1636
vt -0.7994 0.5028 1.1636
vt -0.7994 0.2983 1.1636
vt -2.7484 0.5028 1.1636
vt -2.7484 0.2983 1.1636
vt 3.0987 0.9179 1.1636
vt 2.4490 0.9179 1.1636
vt 2.4490 0.8290 1.1636
vt 3.0987 0.8290 1.1636
vt 1.7994 0.9179 1.1636
vt 1.1497 0.9179 1.1636
vt 1.1497 0.8290 1.1636
vt 1.7994 0.8290 1.1636
vt 3.7484 0.9179 1.1636
vt 3.7484 0.8290 1.1636
vt -0.1497 0.9179 1.1636
vt -0.1497 0.8290 1.1636
vt -1.4490 0.8290 1.1636
vt -1.4490 0.9179 1.1636
vt -2.0987 0.9179 1.1636
vt -2.0987 0.8290 1.1636
vt -0.7994 0.9179 1.1636
vt -0.7994 0.8290 1.1636
vt -2.7484 0.9179 1.1636
vt -2.7484 0.8290 1.1636
vt 1.1636 0.2983 -2.9884
vt 1.1636 0.9179 -2.9884
vt -0.1636 0.9179 -2.9884
vt -0.1636 0.2983 -2.9884
vt 1.1636 0.2983 3.9884
vt 1.1636 0.9179 3.9884
vt -0.1636 0.9179 3.9884
vt -0.1636 0.2983 3.9884
vt -2.9884 0.9179 1.1636
vt -2.9884 0.2983 1.1636
vt 3.9884 0.2983 1.1636
vt 3.9884 0.9179 1.1636
vt -2.9884 0.2983 -0.1636
vt 3.9884 0.2983 -0.1636
vt 3.9884 0.9179 -0.1636
vt -2.9884 0.9179 -0.1636
vt 1.9441 -0.9113 0.0000
vt 1.9441 -0.2294 0.0000
vt -1.3504 -0.2294 0.0000
vt -1.3504 -0.9113 0.0000
vt 6.8661 0.7699 0.0000
vt -5.8661 0.7699 0.0000
vt -5.8661 0.1026 0.0000
vt 6.8661 0.1026 0.0000
vt 1.6632 -0.0062 0.0000
vt -1.0695 -0.0062 0.0000
vt 6.6265 0.9890 0.0000
vt -5.6265 0.9890 0.0000
vt -1.0695 -0.0061 0.0000
vt 1.6632 -0.0061 0.0000
vt -5.6265 0.9916 0.0000
vt 6.6265 0.9916 0.0000
vt 3.5500 0.0967 0.0000
vt 2.7142 0.2223 0.0000
vt -1.8020 0.2223 0.0000
vt -2.6378 0.0967 0.0000
vt 12.6838 -0.7677 0.0000
vt 13.4620 -0.9021 0.0000
vt -12.4536 -0.9021 0.0000
vt -11.6754 -0.7677 0.0000
vt 3.5500 0.0098 0.0000
vt -2.6378 0.0098 0.0000
vt 13.4620 -0.9956 0.0000
vt -12.4536 -0.9956 0.0000
vt 2.8266 1.6323 2.2070
vt 2.8266 1.9959 2.2070
vt -1.8266 1.9959 2.2070
vt -1.8266 1.6323 2.2070
vt -4.8065 1.9959 0.2053
vt -4.8065 1.6323 0.2053
vt 5.8065 1.6323 0.2053
vt 5.8065 1.9959 0.2053
vt -1.8266 1.6323 -1.2070
vt 2.8266 1.6323 -1.2070
vt 2.8266 1.9959 -1.2070
vt -1.8266 1.9959 -1.2070
vt 5.8065 1.9959 0.7947
vt -4.8065 1.9959 0.7947
vt -4.8065 1.6323 0.7947
vt 5.8065 1.6323 0.7947
vt -1.5107 1.9959 -1.1670
vt -1.5107 1.6323 -1.1670
vt 2.5107 1.6323 -1.1671
vt 2.5107 1.9959 -1.1671
vt -4.6822 1.9959 0.2453
vt -4.6822 1.6323 0.2453
vt 5.6822 1.6323 0.2453
vt 5.6822 1.9959 0.2453
vt -1.5107 1.6323 2.1670
vt 2.5107 1.6323 2.1671
vt 2.5107 1.9959 2.1671
vt -1.5107 1.9959 2.1670
vt 5.6822 1.9959 0.7547
vt -4.6822 1.9959 0.7547
vt -4.6822 1.6323 0.7547
vt 5.6822 1.6323 0.7547
vt -0.5501 1.9780 1.9959
vt -0.4076 1.9380 1.9959
vt 1.4076 1.9380 1.9959
vt 1.5501 1.9780 1.9959
vt 1.4076 1.9785 1.9959
vt -0.4076 1.9785 1.9959
vt -0.5501 1.9385 1.9959
vt 1.5501 1.9385 1.9959
vt -1.2070 0.9811 1.9959
vt -1.1671 0.9411 1.9959
vt 2.1670 0.9411 1.9959
vt 2.2070 0.9811 1.9959
vt -1.1670 -0.0292 1.9959
vt -1.2070 -0.0692 1.9959
vt 2.2070 -0.0692 1.9959
vt 2.1671 -0.0292 1.9959
vt 1.2367 -3.7676 0.5000
vt 1.2367 4.7676 0.5000
vt -0.2367 4.7676 0.5000
vt -0.2367 -3.7676 0.5000
# 176 texture coords

g Material__3214
usemtl Material__3214
s off
f 1/1/1 2/2/1 3/3/1 4/4/1 
f 5/5/2 6/6/2 7/7/2 8/8/2 
f 9/3/3 10/4/3 11/1/3 12/2/3 
f 13/5/4 14/8/4 15/7/4 16/6/4 
f 17/9/2 18/10/2 19/11/2 20/12/2 
f 19/5/2 18/6/2 21/7/2 22/8/2 
f 23/7/2 24/8/2 22/5/2 21/6/2 
f 23/6/2 6/7/2 5/8/2 24/5/2 
f 25/10/2 1/9/2 4/12/2 26/11/2 
f 27/6/2 25/7/2 26/8/2 28/5/2 
f 28/8/2 8/5/2 7/6/2 27/7/2 
f 29/11/4 30/12/4 31/9/4 32/10/4 
f 33/5/4 29/8/4 32/7/4 34/6/4 
f 35/6/4 36/5/4 33/8/4 34/7/4 
f 35/7/4 15/6/4 14/5/4 36/8/4 
f 37/10/4 11/9/4 10/12/4 38/11/4 
f 37/6/4 38/5/4 39/8/4 40/7/4 
f 39/5/4 13/8/4 16/7/4 40/6/4 
f 2/2/1 31/1/1 30/4/1 3/3/1 
f 17/1/3 20/4/3 9/3/3 12/2/3 
f 41/13/5 42/14/5 43/15/5 
f 43/15/5 44/16/5 41/13/5 
f 45/17/6 41/13/6 44/16/6 
f 44/16/6 46/18/6 45/17/6 
f 47/19/7 45/20/7 46/21/7 
f 46/21/7 48/22/7 47/19/7 
f 49/23/8 47/19/8 48/22/8 
f 48/22/8 50/24/8 49/23/8 
f 51/25/9 49/23/9 50/24/9 
f 50/24/9 52/26/9 51/25/9 
f 42/14/10 51/27/10 52/28/10 
f 52/28/10 43/15/10 42/14/10 
f 53/13/5 54/14/5 55/15/5 
f 55/15/5 56/16/5 53/13/5 
f 57/17/6 53/13/6 56/16/6 
f 56/16/6 58/18/6 57/17/6 
f 59/19/7 57/20/7 58/21/7 
f 58/21/7 60/22/7 59/19/7 
f 61/23/8 59/19/8 60/22/8 
f 60/22/8 62/24/8 61/23/8 
f 63/25/9 61/23/9 62/24/9 
f 62/24/9 64/26/9 63/25/9 
f 54/14/10 63/27/10 64/28/10 
f 64/28/10 55/15/10 54/14/10 
f 65/13/5 66/14/5 67/15/5 
f 67/15/5 68/16/5 65/13/5 
f 69/17/6 65/13/6 68/16/6 
f 68/16/6 70/18/6 69/17/6 
f 71/19/7 69/20/7 70/21/7 
f 70/21/7 72/22/7 71/19/7 
f 73/23/8 71/19/8 72/22/8 
f 72/22/8 74/24/8 73/23/8 
f 75/25/9 73/23/9 74/24/9 
f 74/24/9 76/26/9 75/25/9 
f 66/14/10 75/27/10 76/28/10 
f 76/28/10 67/15/10 66/14/10 
f 77/13/5 78/14/5 79/15/5 
f 79/15/5 80/16/5 77/13/5 
f 81/17/6 77/13/6 80/16/6 
f 80/16/6 82/18/6 81/17/6 
f 83/19/7 81/20/7 82/21/7 
f 82/21/7 84/22/7 83/19/7 
f 85/23/8 83/19/8 84/22/8 
f 84/22/8 86/24/8 85/23/8 
f 87/25/9 85/23/9 86/24/9 
f 86/24/9 88/26/9 87/25/9 
f 78/14/10 87/27/10 88/28/10 
f 88/28/10 79/15/10 78/14/10 
usemtl Material__3269
f 89/29/11 90/30/11 91/31/11 92/32/11 
f 93/29/11 94/30/11 95/31/11 96/32/11 
f 97/33/11 98/34/11 90/30/11 89/29/11 
f 92/32/11 91/31/11 94/30/11 93/29/11 
f 99/29/11 100/32/11 101/31/11 102/30/11 
f 103/29/11 104/32/11 105/31/11 106/30/11 
f 102/30/11 107/35/11 108/36/11 99/29/11 
f 100/32/11 103/29/11 106/30/11 101/31/11 
f 109/37/11 104/38/11 96/39/11 110/40/11 
usemtl Material__3239
f 111/41/11 112/42/11 113/43/11 114/44/11 
f 115/45/11 116/46/11 117/47/11 118/48/11 
f 119/49/11 111/41/11 114/44/11 120/50/11 
f 112/42/11 115/45/11 118/48/11 113/43/11 
f 121/51/11 122/52/11 123/53/11 124/54/11 
f 125/55/11 126/56/11 127/57/11 128/58/11 
f 124/54/11 123/53/11 129/59/11 130/60/11 
f 128/58/11 127/57/11 122/52/11 121/51/11 
f 131/61/11 132/62/11 133/63/11 134/64/11 
f 135/65/11 136/66/11 137/67/11 138/68/11 
f 139/69/11 131/61/11 134/64/11 140/70/11 
f 132/62/11 135/65/11 138/68/11 133/63/11 
f 137/67/11 136/66/11 141/71/11 142/72/11 
f 143/73/11 144/74/11 145/75/11 146/76/11 
f 142/72/11 141/71/11 147/77/11 148/78/11 
f 146/76/11 145/75/11 149/79/11 150/80/11 
f 148/78/11 147/77/11 144/74/11 143/73/11 
f 151/81/6 152/82/6 30/83/6 153/84/6 
f 154/85/9 10/86/9 155/87/9 156/88/9 
f 149/79/11 157/89/11 158/90/11 130/60/11 
f 120/50/11 159/91/11 160/92/11 139/69/11 
f 154/93/12 153/94/12 30/95/12 10/96/12 
f 161/41/13 111/41/13 119/49/13 162/49/13 
f 163/42/13 112/42/13 111/41/13 161/41/13 
f 164/45/13 115/45/13 112/42/13 163/42/13 
f 165/46/13 116/46/13 115/45/13 164/45/13 
f 166/47/6 117/47/6 116/46/6 165/46/6 
f 167/48/14 118/48/14 117/47/14 166/47/14 
f 168/43/14 113/43/14 118/48/14 167/48/14 
f 169/44/14 114/44/14 113/43/14 168/43/14 
f 170/50/14 120/50/14 114/44/14 169/44/14 
f 171/54/14 124/54/14 130/60/14 172/60/14 
f 173/51/14 121/51/14 124/54/14 171/54/14 
f 174/58/14 128/58/14 121/51/14 173/51/14 
f 175/55/14 125/55/14 128/58/14 174/58/14 
f 176/56/9 126/56/9 125/55/9 175/55/9 
f 94/57/13 127/57/13 126/56/13 176/56/13 
f 91/52/13 122/52/13 127/57/13 94/57/13 
f 177/53/13 123/53/13 122/52/13 91/52/13 
f 98/59/13 129/59/13 123/53/13 177/53/13 
f 178/61/13 131/61/13 139/69/13 179/69/13 
f 180/62/13 132/62/13 131/61/13 178/61/13 
f 181/65/13 135/65/13 132/62/13 180/62/13 
f 182/66/13 136/66/13 135/65/13 181/65/13 
f 183/71/13 141/71/13 136/66/13 182/66/13 
f 184/77/13 147/77/13 141/71/13 183/71/13 
f 185/74/13 144/74/13 147/77/13 184/77/13 
f 186/75/13 145/75/13 144/74/13 185/74/13 
f 187/79/13 149/79/13 145/75/13 186/75/13 
f 188/76/14 146/76/14 150/80/14 189/80/14 
f 190/73/14 143/73/14 146/76/14 188/76/14 
f 191/78/14 148/78/14 143/73/14 190/73/14 
f 192/72/14 142/72/14 148/78/14 191/78/14 
f 193/67/14 137/67/14 142/72/14 192/72/14 
f 194/68/14 138/68/14 137/67/14 193/67/14 
f 195/63/14 133/63/14 138/68/14 194/68/14 
f 196/64/14 134/64/14 133/63/14 195/63/14 
f 197/70/14 140/70/14 134/64/14 196/64/14 
f 151/81/6 158/90/6 157/89/6 152/82/6 
f 172/60/14 130/60/14 158/90/14 151/90/14 
f 187/79/9 149/79/9 130/60/9 172/60/9 
f 152/89/13 157/89/13 149/79/13 187/79/13 
f 155/87/9 160/92/9 159/91/9 156/88/9 
f 179/69/13 139/69/13 160/92/13 155/92/13 
f 170/50/6 120/50/6 139/69/6 179/69/6 
f 156/91/14 159/91/14 120/50/14 170/50/14 
usemtl Material__3271
f 198/97/6 199/98/6 200/99/6 201/100/6 
f 202/98/9 203/97/9 204/100/9 205/99/9 
f 202/101/11 199/102/11 198/103/11 203/104/11 
f 200/102/12 205/101/12 204/104/12 201/103/12 
f 206/105/13 153/106/13 200/99/13 199/98/13 
f 202/101/13 207/107/13 206/108/13 199/102/13 
f 154/109/13 207/110/13 202/98/13 205/99/13 
f 153/111/13 154/112/13 205/101/13 200/102/13 
usemtl Material__3222
f 208/113/15 209/114/15 210/115/15 211/116/15 
f 209/117/16 208/118/16 212/119/16 213/120/16 
f 212/113/17 214/116/17 215/115/17 213/114/17 
f 210/117/18 215/120/18 214/119/18 211/118/18 
f 1/121/6 208/113/6 211/116/6 31/122/6 
f 1/123/11 17/124/11 212/119/11 208/118/11 
f 11/122/9 214/116/9 212/113/9 17/121/9 
f 211/118/12 214/119/12 11/124/12 31/123/12 
usemtl Material__3264
s 1
f 216/125/9 217/126/9 218/127/9 213/128/9 
s 4
f 217/129/12 216/130/12 219/131/12 220/132/12 
s 2
f 219/133/6 209/134/6 221/135/6 220/136/6 
s 4
f 218/137/11 221/138/11 209/139/11 213/140/11 
s 1
f 222/141/9 223/142/9 224/143/9 225/144/9 
s 4
f 225/145/11 224/146/11 226/147/11 227/148/11 
s 2
f 226/149/6 228/150/6 229/151/6 227/152/6 
s 4
f 222/153/12 229/154/12 228/155/12 223/156/12 
s 16
f 217/157/13 227/158/13 229/159/13 218/160/13 
f 222/161/13 225/162/13 220/163/13 221/164/13 
f 220/165/13 225/166/13 227/167/13 217/168/13 
f 222/169/13 221/170/13 218/171/13 229/172/13 
usemtl Material__3225
s off
f 209/173/13 213/174/13 215/175/13 210/176/13 
# 124 polygons - 48 triangles

