mtllib stg600_obj_meteoriteA02.mtl

v -28.920399 -14.062865 4.957376
v -25.161133 -27.699795 15.030496
v -32.686028 -14.954047 16.535980
v -31.984325 -24.832985 -2.410216
v -32.403366 -11.195307 -6.333085
v -32.538445 -8.970409 -17.276081
v -37.016418 -3.295801 -8.960049
v -35.253822 1.495783 -21.024792
v -37.549866 3.438232 -4.350489
v -37.489582 11.638659 -24.104300
v -35.562099 18.836143 -6.970176
v -36.031841 23.327374 -23.521971
v -29.430077 31.459976 -11.679264
v -32.516102 31.861382 -23.998688
v -20.463081 37.847725 -17.701374
v -26.743311 30.940670 -32.925190
v -9.166266 38.508591 -27.185499
v -9.820593 33.563095 -37.124107
v -1.541637 39.207634 -31.977854
v 3.148570 28.006065 -41.185886
v 7.723550 37.108494 -30.299732
v 14.649577 30.133972 -35.144501
v 15.359138 22.142773 -39.452198
v -1.812239 18.170933 -43.735439
v 5.851831 9.266109 -40.646095
v -16.029024 11.821588 -43.112389
v -15.411425 -6.002992 -40.656872
v -29.986160 0.909515 -34.553528
v -24.608059 -12.595948 -25.219172
v -30.232145 -27.321228 -15.942716
v -26.369541 -38.283890 0.055597
v -14.220023 -37.654755 14.986533
v -8.056436 -47.005985 6.193185
v 0.794154 -46.125130 14.399451
v 13.911124 -47.988003 5.610286
v 12.602441 -46.044388 16.923611
v 27.050386 -36.544617 7.133416
v 14.019587 -37.910610 20.776903
v 24.617325 -32.187138 17.328938
v 27.650585 12.717839 -26.215734
v 25.374384 27.229305 -29.332567
v 20.394825 4.355031 -35.348999
v 32.414932 -7.357570 -31.072527
v 8.662582 -9.822839 -39.012730
v 27.160458 -20.357231 -28.757624
v 10.874670 -23.413147 -31.582346
v 16.274933 -30.642925 -25.957722
v 1.397643 -31.787037 -29.801516
v 2.895162 -41.236950 -23.030203
v -17.687365 -27.614685 -28.024017
v -17.693768 -37.618572 -19.882565
v -15.961353 -44.967113 -9.290016
v 40.327301 -1.014112 6.857014
v 36.798550 -11.523679 12.947328
v 40.581921 -6.676631 4.709486
v 31.987030 -6.529532 25.182760
v 35.079128 8.292289 27.417217
v 21.907732 0.162326 36.756573
v 18.882303 18.321430 37.336525
v 10.042314 14.643920 41.926437
v 1.059315 33.772488 33.097298
v -9.157891 9.972909 40.643051
v -22.437971 27.749916 33.629726
v -30.572926 8.385661 29.853006
v -36.753708 24.752457 23.284761
v -39.824566 7.785674 10.320653
v -39.501095 13.958508 7.002592
v -36.321785 17.250065 2.337115
v -33.272373 27.836285 1.673507
v -27.249781 37.127483 16.386938
v -25.319393 37.085037 -2.407421
v -9.779511 39.958839 7.564270
v -17.096020 40.248123 -7.450247
v 4.555656 49.935478 -1.609087
v 0.333910 48.579319 -11.706324
v 20.095398 45.216606 -17.541462
v -3.140138 44.421860 -22.697329
v 16.059044 41.063004 -22.676231
v 31.698151 -15.816582 18.861326
v 26.393909 -18.926594 22.610212
v 15.926749 -12.627383 35.902035
v 16.164070 -25.789322 32.002914
v -1.682744 -25.094444 38.139050
v 8.637639 -38.124489 27.370571
v -5.435342 -32.758812 29.210562
v 0.794154 -46.125130 14.399451
v -14.220023 -37.654755 14.986533
v 25.374384 27.229305 -29.332567
v 32.796951 27.759132 -16.967688
v 23.685335 44.538921 -4.637421
v 36.266739 28.075516 -1.414025
v 34.874241 26.528744 23.367987
v 40.396721 16.101452 11.969186
v -35.562099 18.836143 -6.970176
v 14.471616 43.855236 12.819870
v -27.612534 16.597000 -36.667686
v -21.309814 28.703823 -38.196781
v -15.912109 20.136715 -43.416882
v -11.793658 27.017395 -41.494827
v 14.649577 30.133972 -35.144501
v 15.359138 22.142773 -39.452198
v 7.723550 37.108494 -30.299732
v -1.541637 39.207634 -31.977854
v -9.166266 38.508591 -27.185499
v -17.679356 -23.908230 38.631668
v -22.830671 -28.465881 26.185549
v -15.829309 -30.816845 26.835861
v -28.865082 -20.358574 26.896894
v -26.260704 -8.739185 38.242943
v -37.335262 -5.051352 24.824825
v -8.982167 -11.262019 42.941650
v 7.068938 -0.603267 41.134499
v 43.281849 -15.765036 4.077977
v 40.581921 -6.676631 4.709486
v 36.798550 -11.523679 12.947328
v 44.947788 -5.521134 -10.551054
v 45.258690 -24.429066 -3.531904
v 42.779854 -20.041563 -17.665279
v 38.125214 -30.798138 -10.604990
v -34.992634 -8.065416 -2.319459
v -37.549866 3.438232 -4.350489
v -37.016418 -3.295801 -8.960049
v -40.397655 3.058229 4.105280
v -28.920399 -14.062865 4.957376
v -32.686028 -14.954047 16.535980
v -22.830671 -28.465881 26.185549
v -15.829309 -30.816845 26.835861
v -28.865082 -20.358574 26.896894
v -5.534138 -18.379063 -32.510155
v 27.650585 12.717839 -26.215734
v 35.481373 14.362033 -10.024424
v 17.840078 32.933739 33.440891
v 24.469107 -38.101391 -9.399116
v 9.707511 -49.096153 -8.040446
v 35.481373 14.362033 -10.024424
v 31.698151 -15.816582 18.861326
v 35.880131 -26.589546 12.896278
v 26.393909 -18.926594 22.610212
v 24.311155 -25.053009 22.397837
v 38.095852 -32.169987 2.048170
v 14.019587 -37.910610 20.776903
v 12.602441 -46.044388 16.923611
v 24.311155 -25.053009 22.397837
v 24.617325 -32.187138 17.328938
v -40.397655 3.058229 4.105280
v -36.321785 17.250065 2.337115
v -39.501095 13.958508 7.002592
v 40.327301 -1.014112 6.857014
v 37.186321 8.392134 0.009402
v -34.992634 -8.065416 -2.319459
v 37.186321 8.392134 0.009402
v -39.824566 7.785674 10.320653

vt -1.108398 -0.092651
vt -1.266602 0.133545
vt -1.233398 -0.082642
vt -0.954468 0.100708
vt -0.861084 -0.071533
vt -0.729492 -0.041504
vt -0.781982 -0.241333
vt -0.638428 -0.262207
vt -0.779297 -0.394165
vt -0.526855 -0.383301
vt -0.677612 -0.741455
vt -0.440430 -0.583862
vt -0.185181 -0.892700
vt -0.214722 -0.677612
vt -0.051758 -0.729858
vt -0.202148 -0.517578
vt 0.167236 -0.410400
vt -0.002441 -0.323608
vt 0.229004 -0.255615
vt 0.032959 -0.149170
vt 0.378906 -0.131348
vt 0.251709 -0.018188
vt 0.109497 0.045532
vt -0.105103 -0.138306
vt -0.110840 0.019531
vt -0.304077 -0.151245
vt -0.374634 -0.004761
vt -0.571533 -0.162476
vt -0.558228 0.055542
vt -0.822144 0.190552
vt -0.965820 0.268066
vt -1.250854 0.316284
vt -0.871582 0.519287
vt -0.985474 0.674805
vt -0.713379 0.703003
vt -0.802490 0.872681
vt -0.462646 0.813477
vt -0.665161 1.001221
vt -0.450439 1.038574
vt 0.116821 0.383911
vt 0.293945 0.212769
vt -0.046265 0.288940
vt -0.067261 0.446045
vt -0.240356 0.175903
vt -0.200684 0.465576
vt -0.337646 0.347046
vt -0.364502 0.443726
vt -0.479492 0.321289
vt -0.572998 0.410522
vt -0.613770 0.221069
vt -0.732544 0.306396
vt -0.778687 0.427734
vt 1.302124 -1.307251
vt 1.225220 -1.447632
vt 1.317261 -1.426392
vt 1.072144 -1.382446
vt 1.069092 -1.283936
vt 0.917603 -1.395264
vt 0.810791 -1.256104
vt 0.718018 -1.299927
vt 0.611084 -1.138184
vt 0.566040 -1.363159
vt 0.408081 -1.219727
vt 0.315308 -1.411865
vt 0.227539 -1.228882
vt 0.045532 -1.386475
vt 0.016968 -1.282227
vt -0.068604 -1.196899
vt 0.022949 -1.062988
vt 0.283691 -1.076538
vt 0.090332 -0.828735
vt 0.382813 -0.878296
vt 0.212769 -0.721680
vt 0.522583 -0.725708
vt 0.440186 -0.616699
vt 0.798096 -0.619385
vt 0.334229 -0.466675
vt 0.833862 -0.534912
vt 1.153198 -1.489868
vt 1.113403 -1.541260
vt 0.925415 -1.510986
vt 0.966064 -1.626709
vt 0.701660 -1.632446
vt 0.898682 -1.827637
vt 0.644531 -1.839844
vt 0.795410 -2.080444
vt 0.468628 -2.063843
vt 1.256958 -0.523804
vt 1.200562 -0.740479
vt 0.859375 -0.814941
vt 1.132813 -0.950806
vt 0.970703 -1.100952
vt 1.179688 -1.156006
vt -0.210205 -1.189819
vt 0.704956 -0.931274
vt -0.406006 -0.310425
vt -0.194946 -0.405151
vt -0.230835 -0.247681
vt -0.124634 -0.319824
vt 0.982300 -0.409790
vt 1.098145 -0.309204
vt 0.838623 -0.394531
vt 0.563721 -0.293823
vt 0.384399 -0.267090
vt 0.569336 -1.661133
vt 0.373657 -1.860596
vt 0.492065 -1.873291
vt 0.325928 -1.731934
vt 0.468262 -1.537354
vt 0.264282 -1.559937
vt 0.589722 -1.493530
vt 0.763062 -1.403809
vt -0.113525 0.852417
vt 0.007080 0.981079
vt -0.045898 1.108643
vt -0.036743 0.679321
vt -0.206665 0.763550
vt -0.138184 0.595947
vt -0.272827 0.672974
vt -0.092529 -1.733154
vt -0.125977 -1.488037
vt -0.172974 -1.628540
vt -0.060913 -1.469238
vt 0.059570 -1.820435
vt 0.176147 -1.751953
vt -1.414795 0.149658
vt -1.432983 0.233887
vt -1.422119 0.008179
vt -0.419678 0.195190
vt 1.441406 -0.750244
vt 1.375122 -0.927002
vt 0.763550 -1.114502
vt -0.426270 0.603027
vt -0.660278 0.541260
vt 0.268677 0.494507
vt -0.126831 1.208618
vt -0.303711 0.918091
vt -0.205444 1.231567
vt -0.316284 1.192139
vt -0.319458 0.792480
vt 0.975830 -1.851196
vt 0.943604 -1.985229
vt 1.084595 -1.611084
vt 1.120117 -1.732422
vt -0.916138 -0.461426
vt -0.869995 -0.723999
vt -1.000488 -0.678467
vt 0.218994 0.936035
vt 0.319214 0.700562
vt -0.909424 -0.140625
vt 1.338989 -1.101318
vt -1.023438 -0.581543

vn -0.940630 -0.335760 0.049806
vn -0.796255 -0.597710 0.093383
vn -0.869486 -0.483936 -0.098997
vn -0.963203 -0.204530 0.174379
vn -0.947175 -0.319631 0.026366
vn -0.887520 -0.327578 -0.324038
vn -0.963406 -0.257759 -0.073549
vn -0.927792 -0.279784 -0.246825
vn -0.984655 -0.059325 -0.164119
vn -0.957114 -0.015198 -0.289313
vn -0.962424 0.271063 -0.016297
vn -0.937153 0.272466 -0.217961
vn -0.768624 0.639533 0.014649
vn -0.737250 0.653632 -0.170961
vn -0.421388 0.893190 -0.156983
vn -0.551327 0.612727 -0.566219
vn -0.350085 0.835420 -0.423691
vn -0.146972 0.732482 -0.664733
vn 0.012268 0.813293 -0.581726
vn 0.162172 0.446048 -0.880194
vn 0.231449 0.749583 -0.620126
vn 0.388243 0.584226 -0.712704
vn 0.467782 0.156436 -0.869889
vn 0.098754 -0.003540 -0.995106
vn 0.206539 -0.116514 -0.971476
vn -0.226314 -0.096312 -0.969281
vn -0.267202 -0.419785 -0.867401
vn -0.700799 -0.292783 -0.650507
vn -0.631636 -0.400807 -0.663618
vn -0.842598 -0.365116 -0.395878
vn -0.773600 -0.591415 0.227533
vn -0.510123 -0.747912 0.424737
vn -0.302792 -0.921499 0.243222
vn -0.190853 -0.897014 0.398673
vn 0.354238 -0.931125 0.086728
vn 0.343084 -0.813978 0.468757
vn 0.573556 -0.780591 0.248417
vn 0.644280 -0.518305 0.562372
vn 0.557246 -0.624079 0.547725
vn 0.792044 0.152464 -0.591119
vn 0.709722 0.305422 -0.634832
vn 0.482720 0.057433 -0.873889
vn 0.618652 0.005798 -0.785644
vn 0.143129 -0.278263 -0.949781
vn 0.403500 -0.467464 -0.786553
vn 0.141234 -0.429621 -0.891896
vn 0.345944 -0.608943 -0.713800
vn 0.003540 -0.449407 -0.893320
vn 0.057861 -0.767509 -0.638421
vn -0.424918 -0.332635 -0.841902
vn -0.432128 -0.698179 -0.570799
vn -0.388678 -0.883438 -0.261662
vn 0.978416 0.024354 0.205205
vn 0.859501 -0.081971 0.504519
vn 0.933440 0.060183 0.353649
vn 0.763354 -0.301082 0.571524
vn 0.799941 -0.039674 0.598766
vn 0.496689 -0.150203 0.854833
vn 0.417796 0.225592 0.880088
vn 0.149780 0.195312 0.969236
vn -0.070862 0.708374 0.702271
vn -0.194398 0.177186 0.964787
vn -0.371705 0.473695 0.798403
vn -0.698976 0.119202 0.705141
vn -0.851331 0.336309 0.402655
vn -0.983356 0.038270 0.177616
vn -0.948508 0.261481 -0.178776
vn -0.942548 0.306696 -0.132444
vn -0.880321 0.466131 -0.088075
vn -0.469786 0.860653 0.196410
vn -0.541012 0.840204 -0.036926
vn -0.233584 0.941171 0.244204
vn -0.385746 0.922433 0.017822
vn -0.083192 0.981514 0.172365
vn -0.192260 0.966852 -0.168029
vn 0.441829 0.805779 -0.394344
vn -0.186221 0.893749 -0.408086
vn 0.256473 0.686348 -0.680550
vn 0.739077 -0.256226 0.622988
vn 0.662025 -0.293386 0.689673
vn 0.449934 -0.262319 0.853667
vn 0.529360 -0.386964 0.755008
vn 0.102359 -0.476393 0.873254
vn 0.222480 -0.691426 0.687337
vn -0.219914 -0.780899 0.584667
vn -0.190853 -0.897014 0.398673
vn -0.510123 -0.747912 0.424737
vn 0.709722 0.305422 -0.634832
vn 0.885369 0.291685 -0.361997
vn 0.580496 0.813891 0.024597
vn 0.915272 0.390559 -0.098693
vn 0.765973 0.455128 0.454030
vn 0.989828 0.121890 0.073366
vn -0.962424 0.271063 -0.016297
vn 0.187867 0.913702 0.360354
vn -0.658678 0.088194 -0.747238
vn -0.407353 0.482611 -0.775339
vn -0.258054 0.142149 -0.955616
vn -0.093690 0.431891 -0.897046
vn 0.388243 0.584226 -0.712704
vn 0.467782 0.156436 -0.869889
vn 0.231449 0.749583 -0.620126
vn 0.012268 0.813293 -0.581726
vn -0.350085 0.835420 -0.423691
vn -0.353940 -0.537348 0.765496
vn -0.603638 -0.725831 0.329834
vn -0.292603 -0.844667 0.448243
vn -0.807385 -0.492073 0.325566
vn -0.581056 -0.065552 0.811220
vn -0.925653 -0.133605 0.354001
vn -0.030151 -0.096068 0.994918
vn 0.170407 -0.099607 0.980326
vn 0.911404 0.037477 0.409802
vn 0.933440 0.060183 0.353649
vn 0.859501 -0.081971 0.504519
vn 0.960339 0.227908 -0.160646
vn 0.935857 -0.346925 0.061768
vn 0.802622 -0.294132 -0.518927
vn 0.573057 -0.748045 -0.334716
vn -0.857798 -0.512213 0.042664
vn -0.984655 -0.059325 -0.164119
vn -0.963406 -0.257759 -0.073549
vn -0.982092 -0.143246 -0.122372
vn -0.940630 -0.335760 0.049806
vn -0.869486 -0.483936 -0.098997
vn -0.603638 -0.725831 0.329834
vn -0.292603 -0.844667 0.448243
vn -0.807385 -0.492073 0.325566
vn -0.178159 -0.411982 -0.893605
vn 0.792044 0.152464 -0.591119
vn 0.944032 0.188843 -0.270447
vn 0.289799 0.605781 0.740976
vn 0.499880 -0.812076 -0.301087
vn 0.217222 -0.937857 -0.270627
vn 0.944032 0.188843 -0.270447
vn 0.739077 -0.256226 0.622988
vn 0.701175 -0.398378 0.591311
vn 0.662025 -0.293386 0.689673
vn 0.671644 -0.336738 0.659925
vn 0.611691 -0.770077 0.181151
vn 0.644280 -0.518305 0.562372
vn 0.343084 -0.813978 0.468757
vn 0.671644 -0.336738 0.659925
vn 0.557246 -0.624079 0.547725
vn -0.982092 -0.143246 -0.122372
vn -0.942548 0.306696 -0.132444
vn -0.948508 0.261481 -0.178776
vn 0.978416 0.024354 0.205205
vn 0.978086 0.184936 -0.095642
vn -0.857798 -0.512213 0.042664
vn 0.978086 0.184936 -0.095642
vn -0.983356 0.038270 0.177616

g polygon0
s 1
usemtl mat1
f 1/1/1 2/2/2 3/3/3
f 1/1/1 4/4/4 2/2/2
f 5/5/5 4/4/4 1/1/1
f 5/5/5 6/6/6 4/4/4
f 7/7/7 6/6/6 5/5/5
f 7/7/7 8/8/8 6/6/6
f 9/9/9 8/8/8 7/7/7
f 9/9/9 10/10/10 8/8/8
f 11/11/11 10/10/10 9/9/9
f 11/11/11 12/12/12 10/10/10
f 13/13/13 12/12/12 11/11/11
f 13/13/13 14/14/14 12/12/12
f 15/15/15 14/14/14 13/13/13
f 15/15/15 16/16/16 14/14/14
f 17/17/17 16/16/16 15/15/15
f 17/17/17 18/18/18 16/16/16
f 19/19/19 18/18/18 17/17/17
f 19/19/19 20/20/20 18/18/18
f 21/21/21 20/20/20 19/19/19
f 21/21/21 22/22/22 20/20/20
f 23/23/23 20/20/20 22/22/22
f 23/23/23 24/24/24 20/20/20
f 25/25/25 24/24/24 23/23/23
f 25/25/25 26/26/26 24/24/24
f 27/27/27 26/26/26 25/25/25
f 27/27/27 28/28/28 26/26/26
f 29/29/29 28/28/28 27/27/27
f 29/29/29 6/6/6 28/28/28
f 30/30/30 6/6/6 29/29/29
f 30/30/30 4/4/4 6/6/6
f 31/31/31 4/4/4 30/30/30
f 31/31/31 32/32/32 4/4/4
f 33/33/33 32/32/32 31/31/31
f 33/33/33 34/34/34 32/32/32
f 35/35/35 34/34/34 33/33/33
f 35/35/35 36/36/36 34/34/34
f 37/37/37 36/36/36 35/35/35
f 37/37/37 38/38/38 36/36/36
f 39/39/39 38/38/38 37/37/37
f 40/40/40 23/23/23 41/41/41
f 40/40/40 42/42/42 23/23/23
f 43/43/43 42/42/42 40/40/40
f 43/43/43 44/44/44 42/42/42
f 45/45/45 44/44/44 43/43/43
f 45/45/45 46/46/46 44/44/44
f 47/47/47 46/46/46 45/45/45
f 47/47/47 48/48/48 46/46/46
f 49/49/49 48/48/48 47/47/47
f 49/49/49 50/50/50 48/48/48
f 51/51/51 50/50/50 49/49/49
f 51/51/51 30/30/30 50/50/50
f 52/52/52 30/30/30 51/51/51
f 52/52/52 31/31/31 30/30/30
f 33/33/33 31/31/31 52/52/52
f 53/53/53 54/54/54 55/55/55
f 53/53/53 56/56/56 54/54/54
f 57/57/57 56/56/56 53/53/53
f 57/57/57 58/58/58 56/56/56
f 59/59/59 58/58/58 57/57/57
f 59/59/59 60/60/60 58/58/58
f 61/61/61 60/60/60 59/59/59
f 61/61/61 62/62/62 60/60/60
f 63/63/63 62/62/62 61/61/61
f 63/63/63 64/64/64 62/62/62
f 65/65/65 64/64/64 63/63/63
f 65/65/65 66/66/66 64/64/64
f 67/67/67 66/66/66 65/65/65
f 65/65/65 68/68/68 67/67/67
f 65/65/65 69/69/69 68/68/68
f 70/70/70 69/69/69 65/65/65
f 70/70/70 71/71/71 69/69/69
f 72/72/72 71/71/71 70/70/70
f 72/72/72 73/73/73 71/71/71
f 74/74/74 73/73/73 72/72/72
f 74/74/74 75/75/75 73/73/73
f 76/76/76 75/75/75 74/74/74
f 76/76/76 77/77/77 75/75/75
f 78/78/78 77/77/77 76/76/76
f 56/56/56 79/79/79 54/54/54
f 56/56/56 80/80/80 79/79/79
f 81/81/81 80/80/80 56/56/56
f 81/81/81 82/82/82 80/80/80
f 83/83/83 82/82/82 81/81/81
f 83/83/83 84/84/84 82/82/82
f 85/85/85 84/84/84 83/83/83
f 85/85/85 86/86/86 84/84/84
f 87/87/87 86/86/86 85/85/85
f 76/76/76 88/88/88 78/78/78
f 76/76/76 89/89/89 88/88/88
f 90/90/90 89/89/89 76/76/76
f 90/90/90 91/91/91 89/89/89
f 92/92/92 91/91/91 90/90/90
f 92/92/92 93/93/93 91/91/91
f 57/57/57 93/93/93 92/92/92
f 57/57/57 53/53/53 93/93/93
f 69/69/69 94/94/94 68/68/68
f 69/69/69 13/13/13 94/94/94
f 71/71/71 13/13/13 69/69/69
f 71/71/71 15/15/15 13/13/13
f 73/73/73 15/15/15 71/71/71
f 73/73/73 77/77/77 15/15/15
f 75/75/75 77/77/77 73/73/73
f 74/74/74 90/90/90 76/76/76
f 74/74/74 95/95/95 90/90/90
f 72/72/72 95/95/95 74/74/74
f 72/72/72 61/61/61 95/95/95
f 70/70/70 61/61/61 72/72/72
f 70/70/70 63/63/63 61/61/61
f 65/65/65 63/63/63 70/70/70
f 16/16/16 12/12/12 14/14/14
f 16/16/16 96/96/96 12/12/12
f 97/97/97 96/96/96 16/16/16
f 97/97/97 98/98/98 96/96/96
f 99/99/99 98/98/98 97/97/97
f 99/99/99 24/24/24 98/98/98
f 20/20/20 24/24/24 99/99/99
f 100/100/100 88/88/88 101/101/101
f 100/100/100 78/78/78 88/88/88
f 102/102/102 78/78/78 100/100/100
f 102/102/102 77/77/77 78/78/78
f 103/103/103 77/77/77 102/102/102
f 103/103/103 104/104/104 77/77/77
f 105/105/105 106/106/106 107/107/107
f 105/105/105 108/108/108 106/106/106
f 109/109/109 108/108/108 105/105/105
f 109/109/109 110/110/110 108/108/108
f 64/64/64 110/110/110 109/109/109
f 64/64/64 66/66/66 110/110/110
f 85/85/85 107/107/107 87/87/87
f 85/85/85 105/105/105 107/107/107
f 83/83/83 105/105/105 85/85/85
f 83/83/83 111/111/111 105/105/105
f 81/81/81 111/111/111 83/83/83
f 81/81/81 112/112/112 111/111/111
f 113/113/113 114/114/114 115/115/115
f 113/113/113 116/116/116 114/114/114
f 117/117/117 116/116/116 113/113/113
f 117/117/117 118/118/118 116/116/116
f 119/119/119 118/118/118 117/117/117
f 119/119/119 45/45/45 118/118/118
f 120/120/120 121/121/121 122/122/122
f 120/120/120 123/123/123 121/121/121
f 124/124/124 123/123/123 120/120/120
f 124/124/124 125/125/125 123/123/123
f 126/126/126 32/32/32 127/127/127
f 126/126/126 2/2/2 32/32/32
f 128/128/128 2/2/2 126/126/126
f 128/128/128 3/3/3 2/2/2
f 44/44/44 27/27/27 25/25/25
f 44/44/44 129/129/129 27/27/27
f 46/46/46 129/129/129 44/44/44
f 46/46/46 48/48/48 129/129/129
f 58/58/58 81/81/81 56/56/56
f 58/58/58 112/112/112 81/81/81
f 60/60/60 112/112/112 58/58/58
f 60/60/60 62/62/62 112/112/112
f 89/89/89 130/130/130 88/88/88
f 89/89/89 131/131/131 130/130/130
f 91/91/91 131/131/131 89/89/89
f 91/91/91 93/93/93 131/131/131
f 26/26/26 98/98/98 24/24/24
f 26/26/26 96/96/96 98/98/98
f 28/28/28 96/96/96 26/26/26
f 28/28/28 10/10/10 96/96/96
f 95/95/95 92/92/92 90/90/90
f 95/95/95 132/132/132 92/92/92
f 61/61/61 132/132/132 95/95/95
f 61/61/61 59/59/59 132/132/132
f 133/133/133 37/37/37 35/35/35
f 133/133/133 119/119/119 37/37/37
f 47/47/47 119/119/119 133/133/133
f 47/47/47 45/45/45 119/119/119
f 133/133/133 49/49/49 47/47/47
f 133/133/133 134/134/134 49/49/49
f 35/35/35 134/134/134 133/133/133
f 35/35/35 33/33/33 134/134/134
f 43/43/43 118/118/118 45/45/45
f 43/43/43 116/116/116 118/118/118
f 40/40/40 116/116/116 43/43/43
f 40/40/40 135/135/135 116/116/116
f 136/136/136 113/113/113 115/115/115
f 136/136/136 137/137/137 113/113/113
f 138/138/138 137/137/137 136/136/136
f 138/138/138 139/139/139 137/137/137
f 137/137/137 117/117/117 113/113/113
f 137/137/137 140/140/140 117/117/117
f 37/37/37 140/140/140 137/137/137
f 37/37/37 119/119/119 140/140/140
f 84/84/84 141/141/141 82/82/82
f 84/84/84 142/142/142 141/141/141
f 86/86/86 142/142/142 84/84/84
f 82/82/82 143/143/143 80/80/80
f 82/82/82 144/144/144 143/143/143
f 141/141/141 144/144/144 82/82/82
f 145/145/145 11/11/11 9/9/9
f 145/145/145 146/146/146 11/11/11
f 147/147/147 146/146/146 145/145/145
f 116/116/116 148/148/148 114/114/114
f 116/116/116 149/149/149 148/148/148
f 135/135/135 149/149/149 116/116/116
f 129/129/129 29/29/29 27/27/27
f 129/129/129 50/50/50 29/29/29
f 48/48/48 50/50/50 129/129/129
f 111/111/111 109/109/109 105/105/105
f 111/111/111 62/62/62 109/109/109
f 112/112/112 62/62/62 111/111/111
f 110/110/110 125/125/125 108/108/108
f 110/110/110 123/123/123 125/125/125
f 66/66/66 123/123/123 110/110/110
f 99/99/99 18/18/18 20/20/20
f 99/99/99 97/97/97 18/18/18
f 52/52/52 134/134/134 33/33/33
f 52/52/52 51/51/51 134/134/134
f 8/8/8 28/28/28 6/6/6
f 8/8/8 10/10/10 28/28/28
f 150/150/150 5/5/5 1/1/1
f 150/150/150 7/7/7 5/5/5
f 92/92/92 59/59/59 57/57/57
f 92/92/92 132/132/132 59/59/59
f 42/42/42 25/25/25 23/23/23
f 42/42/42 44/44/44 25/25/25
f 39/39/39 137/137/137 139/139/139
f 39/39/39 37/37/37 137/137/137
f 93/93/93 151/151/151 131/131/131
f 93/93/93 53/53/53 151/151/151
f 32/32/32 2/2/2 4/4/4
f 10/10/10 12/12/12 96/96/96
f 97/97/97 16/16/16 18/18/18
f 147/147/147 145/145/145 152/152/152
f 15/15/15 77/77/77 17/17/17
f 109/109/109 62/62/62 64/64/64
f 50/50/50 30/30/30 29/29/29
f 49/49/49 134/134/134 51/51/51
f 119/119/119 117/117/117 140/140/140

