mtllib stg600_obj_meteoriteB03.mtl

v -42.002579 -36.913460 34.286598
v -26.152151 -44.303986 43.593880
v -38.090393 -30.543474 44.332363
v -41.095764 -48.772270 24.067635
v -56.619926 -30.943213 20.051582
v -43.316772 -46.515892 -1.421737
v -52.869652 -35.046890 -4.507837
v -41.489777 -43.644257 -23.831915
v -51.350708 -29.547731 -30.957008
v -29.108271 -38.105446 -47.507313
v -39.677177 -21.124464 -51.711781
v -16.617968 -19.015913 -62.507435
v -37.696976 -1.578104 -56.954838
v -14.181400 4.574520 -63.488487
v -21.154867 18.927259 -56.482521
v -0.703264 23.729187 -55.830303
v -20.538952 34.017384 -45.020233
v 1.560466 40.233818 -48.179352
v -55.562874 32.125153 32.619858
v -43.052155 38.919266 7.456158
v -53.696129 29.109882 7.050122
v -41.929611 39.030693 19.814760
v -30.821619 40.175846 33.047726
v -30.487829 50.660980 21.078770
v -9.950405 55.276917 26.077719
v -8.122376 60.313553 18.593920
v 6.180137 55.897873 21.896135
v 14.218473 60.635292 14.643358
v 18.528408 54.656364 17.961935
v 22.131691 60.611176 1.918430
v 35.764561 50.119194 17.418293
v 38.206371 51.439827 -0.329571
v 53.650337 48.450867 6.398521
v 51.745102 48.812340 -13.370186
v 67.783249 39.929066 -6.075871
v -0.453564 -36.974922 50.596947
v 12.593169 -12.940702 50.077511
v 2.124184 -10.359905 52.629154
v 24.327251 -28.118185 42.479469
v 20.771288 -38.712364 39.607414
v 37.080818 -29.923651 23.323244
v 15.630907 -48.442291 36.999420
v 14.569410 -56.157303 20.830265
v -3.127925 -56.788666 36.400013
v -4.146832 -66.545341 19.118269
v -21.869160 -63.508453 22.697800
v -13.446943 -65.574913 -0.815408
v -31.962000 -60.458595 4.306039
v -28.695925 -52.625809 -15.052265
v 22.583769 32.535603 -58.619480
v 7.737724 8.504374 -62.443863
v 26.151571 10.232994 -67.621880
v 7.907355 -13.858507 -65.261497
v 28.785837 -9.945726 -68.296783
v 11.750591 -25.503729 -62.321194
v 26.386013 -27.538252 -61.657440
v 15.059367 -37.186188 -48.785187
v 39.373840 -33.751419 -45.596054
v 30.706263 -35.875702 -25.377726
v 56.920151 -26.306208 -30.553284
v 47.228798 -27.881285 -6.306362
v 68.662201 -14.443645 -10.685127
v -12.814976 28.060997 47.787872
v -4.478703 43.383362 36.393486
v 14.530272 32.631626 44.150196
v 9.631558 16.725630 53.227356
v 36.822395 24.179995 52.331612
v 42.819855 0.333512 51.559345
v 58.772804 17.549719 44.729816
v 62.342148 1.065865 36.293736
v 69.549980 16.280787 27.596624
v 68.059425 -0.874620 13.783407
v 71.812973 22.700581 8.243551
v -38.090393 -30.543474 44.332363
v -68.304893 -10.151648 38.990517
v -42.002579 -36.913460 34.286598
v -57.811684 -6.211571 54.636417
v -43.265129 -1.950712 63.563698
v -66.381111 8.740843 52.967731
v -42.509499 23.060833 56.016705
v -65.111351 22.546032 45.533592
v -71.879974 21.315680 23.331703
v -41.531120 34.889103 -7.577457
v -53.696129 29.109882 7.050122
v -43.052155 38.919266 7.456158
v -44.657654 29.201990 -23.227354
v -35.972641 35.096207 -22.979967
v -17.833401 40.131012 -39.115028
v -3.622647 44.741623 -40.685814
v 9.168802 53.824181 -31.217438
v 47.228798 -27.881285 -6.306362
v 37.080818 -29.923651 23.323244
v 23.363695 -45.010925 -1.849870
v 57.802658 -17.265091 9.861063
v 68.662201 -14.443645 -10.685127
v 77.002991 6.608283 -11.669525
v 76.973793 25.952892 -13.186715
v -15.364223 4.866812 60.430309
v 13.280203 2.195136 56.016968
v 12.593169 -12.940702 50.077511
v 24.327251 -28.118185 42.479469
v 18.276684 48.968964 -36.487068
v 37.192574 42.056953 -47.985401
v 52.309708 31.918703 -55.028904
v 44.957329 46.605110 -34.672588
v 67.515656 39.379433 -30.195515
v 51.745102 48.812340 -13.370186
v 67.783249 39.929066 -6.075871
v 27.652384 54.413116 -16.240513
v 14.930302 60.649559 -13.708135
v 3.381474 65.146523 -11.175757
v 9.168802 53.824181 -31.217438
v -12.525629 56.490967 -30.976810
v -3.622647 44.741623 -40.685814
v -17.833401 40.131012 -39.115028
v 18.503183 46.563042 31.446943
v 36.454552 41.188637 38.660713
v 53.491898 33.729805 42.760624
v 65.341873 33.169765 28.631172
v -5.903496 -33.807129 -58.378616
v -4.458207 -47.282494 -35.768894
v 8.590964 -47.578857 -26.408588
v 23.363695 -45.010925 -1.849870
v -44.454041 16.746180 -44.770374
v -54.604324 15.279266 -28.885118
v -56.717834 -5.908579 -35.755844
v -65.005150 2.513503 -8.780796
v -63.265442 -18.967533 -5.047902
v -75.403542 -15.120852 19.393400
v -25.720533 -48.277359 -31.943352
v -10.566801 -53.299522 -22.109638
v 5.267717 -56.946251 -9.378039
v 5.694631 -62.762215 6.480341
v 55.028542 10.505949 -60.997353
v 73.972900 19.071438 -38.248650
v 69.857140 -5.545446 -40.908440
v 77.002991 6.608283 -11.669525
v 55.419235 -6.309586 -61.999237
v 50.678314 -21.032724 -56.122311
v -28.202452 -28.142920 49.759018
v -23.042479 -21.246687 52.966602
v -12.440258 -14.481474 54.862476
v -56.619926 -30.943213 20.051582
v -75.403542 -15.120852 19.393400
v -75.010735 8.315765 40.250275
v -78.182289 5.409188 15.796504
v -31.983198 56.112144 -9.107221
v -19.615328 61.737328 -5.701756
v -5.785257 64.839638 4.761322
v -35.972641 35.096207 -22.979967
v -41.531120 34.889103 -7.577457
v 53.150352 44.550591 25.268436
v 63.740227 39.180969 11.233750
v -78.182289 5.409188 15.796504
v -61.261429 19.046822 -3.183051
v -71.879974 21.315680 23.331703
v 76.973793 25.952892 -13.186715
v -12.440258 -14.481474 54.862476
v 2.124184 -10.359905 52.629154
v -23.042479 -21.246687 52.966602
v 52.280769 -15.399473 31.406082
v 14.930302 60.649559 -13.708135
v 27.652384 54.413116 -16.240513
v -28.202452 -28.142920 49.759018

vt -0.098511 -0.255615
vt -0.347900 -0.372803
vt -0.071533 -0.408447
vt -0.270630 -0.171265
vt -0.028198 0.049683
vt -0.436768 -0.025146
vt -0.364624 0.109497
vt -0.506958 0.074341
vt -0.463013 0.187134
vt -0.653564 0.152100
vt -0.595093 0.277344
vt -0.750244 0.301636
vt -0.614380 0.426147
vt -0.766479 0.472534
vt -0.714355 0.567261
vt -0.837769 0.593262
vt -0.702148 0.687988
vt -0.840942 0.729858
vt -2.711914 0.546143
vt -2.772827 0.806885
vt -2.893311 0.727661
vt -2.635498 0.684814
vt -2.563110 0.578491
vt -2.547363 0.713379
vt -2.431641 0.702637
vt -2.405396 0.758057
vt -2.327393 0.730591
vt -2.266968 0.758911
vt -2.245117 0.714478
vt -2.194458 0.831177
vt -2.112183 0.660400
vt -2.063843 0.742798
vt -1.969360 0.651733
vt -1.821899 0.774902
vt -1.657593 0.675049
vt -0.605469 -0.568115
vt -0.762451 -0.741577
vt -0.644653 -0.750488
vt -0.915161 -0.646118
vt -0.918701 -0.582642
vt -1.089844 -0.555420
vt -0.915283 -0.502686
vt -0.924316 -0.394165
vt -0.614624 -0.397827
vt -0.631226 -0.295410
vt -0.460327 -0.268921
vt -0.642822 -0.164795
vt -0.519775 -0.141479
vt -0.559448 -0.028076
vt -0.983154 0.683472
vt -0.898193 0.490967
vt -1.017334 0.505005
vt -0.903198 0.334106
vt -1.034302 0.359619
vt -0.922485 0.243896
vt -1.010498 0.222656
vt -0.923828 0.136353
vt -1.182495 0.119995
vt -1.198608 -0.067017
vt -1.434937 0.155518
vt -1.652832 -0.048584
vt -1.653076 0.130127
vt -2.456177 0.471680
vt -2.385864 0.598877
vt -2.287231 0.494141
vt -2.332886 0.365479
vt -2.169800 0.402832
vt -2.132813 0.231323
vt -2.025635 0.357544
vt -1.989014 0.255737
vt -1.930298 0.377319
vt -1.808350 0.264526
vt -1.820068 0.455566
vt -2.762451 -0.020752
vt -2.884155 0.208374
vt -2.861694 -0.056396
vt -2.775513 0.231201
vt -2.668457 0.245361
vt -2.754028 0.331177
vt -2.647461 0.438110
vt -2.801025 0.432007
vt -3.023071 0.541870
vt -0.388184 0.696533
vt -0.206177 0.626953
vt -0.314209 0.733154
vt -0.440063 0.614868
vt -0.491089 0.692261
vt -0.708008 0.756348
vt -0.801147 0.793335
vt -0.845703 0.938965
vt -1.653198 -0.049683
vt -2.068481 0.028931
vt -1.850098 -0.274414
vt -1.848633 0.068237
vt -1.653076 0.124756
vt -1.653076 0.368530
vt -1.653198 0.544678
vt -2.494385 0.282349
vt -2.308472 0.276611
vt -2.323364 0.150146
vt -2.244263 0.024658
vt -0.941406 0.902832
vt -1.105469 0.803467
vt -1.206299 0.662109
vt -1.279297 0.873291
vt -1.437622 0.671021
vt -1.390381 1.047485
vt -1.657715 0.674194
vt -2.031982 0.918091
vt -2.184082 0.984131
vt -2.316406 1.010864
vt -2.279663 1.188354
vt -2.547852 1.092529
vt -2.499634 1.244019
vt -2.627197 1.227661
vt -2.240356 0.617065
vt -2.146973 0.552246
vt -2.053345 0.479858
vt -1.957153 0.497681
vt -0.809692 0.184082
vt -0.795410 0.062012
vt -0.924438 -0.049683
vt -1.225342 -0.264160
vt -0.556396 0.541138
vt -0.422485 0.508423
vt -0.423462 0.367554
vt -0.279663 0.387451
vt -0.270752 0.225708
vt -0.023560 0.203125
vt -0.652466 0.058594
vt -0.772461 -0.013672
vt -0.897827 -0.161133
vt -0.904907 -0.257935
vt -1.219238 0.485474
vt -1.380737 0.503174
vt -1.394043 0.331421
vt -1.653076 0.368896
vt -1.229004 0.365601
vt -1.186035 0.251587
vt -0.228760 -0.561646
vt -0.376831 -0.645996
vt -0.458740 -0.754639
vt -3.025513 0.047485
vt -3.023071 0.202759
vt -2.892944 0.348877
vt -3.023071 0.391235
vt -2.658081 0.979614
vt -2.544434 0.937378
vt -2.403931 0.877441
vt -2.764526 1.170532
vt -2.904663 0.994263
vt -2.023315 0.593384
vt -1.862183 0.552856
vt -0.023560 0.390869
vt -0.255249 0.509766
vt -0.023560 0.534790
vt -1.653076 0.542480
vt -2.451660 0.157837
vt -2.369751 0.202393
vt -2.525146 0.072876
vt -2.001465 0.126831
vt -1.068481 1.147095
vt -1.179199 1.050781
vt -2.621704 0.016113

vn -0.613825 -0.575373 0.540522
vn -0.330565 -0.565733 0.755429
vn -0.455154 -0.557330 0.694419
vn -0.675103 -0.661371 0.326840
vn -0.715589 -0.678907 0.164371
vn -0.714425 -0.689766 -0.117555
vn -0.794385 -0.600107 -0.093935
vn -0.595937 -0.750536 -0.285578
vn -0.782949 -0.483514 -0.391414
vn -0.364068 -0.679920 -0.636524
vn -0.589244 -0.327094 -0.738783
vn -0.231811 -0.236389 -0.943602
vn -0.530754 0.074035 -0.844286
vn -0.151180 0.191279 -0.969823
vn -0.265554 0.467818 -0.842987
vn -0.170352 0.417182 -0.892715
vn -0.387576 0.658879 -0.644719
vn -0.176025 0.658995 -0.731260
vn -0.437072 0.878477 0.192993
vn -0.727501 0.682212 -0.073000
vn -0.621200 0.756145 -0.205805
vn -0.527959 0.836067 0.149171
vn -0.279237 0.771061 0.572269
vn -0.528323 0.760563 0.377383
vn -0.094908 0.756277 0.647331
vn -0.129335 0.899970 0.416324
vn 0.141301 0.759913 0.634481
vn 0.319892 0.841814 0.434762
vn 0.320072 0.799874 0.507696
vn 0.369996 0.926456 0.069153
vn 0.229129 0.926528 0.298405
vn 0.312134 0.949584 0.029358
vn 0.396606 0.911804 0.106384
vn 0.341625 0.936920 -0.073977
vn 0.730368 0.676411 0.095034
vn 0.139830 -0.372126 0.917589
vn 0.189330 -0.278318 0.941644
vn 0.168212 -0.230712 0.958372
vn 0.474303 -0.431335 0.767455
vn 0.592266 -0.444139 0.672281
vn 0.639641 -0.722526 0.262326
vn 0.508483 -0.649412 0.565428
vn 0.605284 -0.777219 0.171935
vn 0.109555 -0.762676 0.637435
vn 0.157898 -0.964354 0.212341
vn -0.319824 -0.886108 0.335449
vn -0.066467 -0.957635 -0.280210
vn -0.543959 -0.829610 -0.125919
vn -0.381039 -0.860893 -0.337155
vn -0.066894 0.550779 -0.831966
vn -0.154234 0.236631 -0.959280
vn -0.028809 0.205873 -0.978155
vn -0.099000 -0.112367 -0.988723
vn 0.093873 -0.160891 -0.982498
vn -0.017029 -0.495120 -0.868658
vn 0.142029 -0.629271 -0.764098
vn 0.184999 -0.875680 -0.446049
vn 0.343441 -0.901296 -0.264035
vn 0.404662 -0.909970 -0.090576
vn 0.608947 -0.789245 -0.079224
vn 0.534743 -0.839072 0.100039
vn 0.797281 -0.594039 0.107053
vn 0.015503 0.590265 0.807060
vn -0.028260 0.651692 0.757957
vn -0.024719 0.593440 0.804498
vn 0.056031 0.348698 0.935559
vn 0.114746 0.317872 0.941165
vn 0.356740 -0.261406 0.896885
vn 0.644672 0.057558 0.762290
vn 0.770394 -0.376164 0.514776
vn 0.947937 -0.011841 0.318237
vn 0.897520 -0.364013 0.248901
vn 0.964460 0.168332 0.203671
vn -0.455154 -0.557330 0.694419
vn -0.714837 -0.509822 0.478633
vn -0.613825 -0.575373 0.540522
vn -0.531024 -0.443130 0.722253
vn -0.160463 -0.143373 0.976573
vn -0.643857 0.085876 0.760311
vn -0.133059 0.592172 0.794750
vn -0.576180 0.652964 0.491584
vn -0.772415 0.631726 -0.065553
vn -0.748100 0.623468 -0.227232
vn -0.621200 0.756145 -0.205805
vn -0.727501 0.682212 -0.073000
vn -0.611818 0.731630 -0.300660
vn -0.640802 0.656182 -0.398495
vn -0.467530 0.634095 -0.615906
vn -0.172240 0.700252 -0.692806
vn 0.122011 0.834912 -0.536690
vn 0.534743 -0.839072 0.100039
vn 0.639641 -0.722526 0.262326
vn 0.626113 -0.772356 -0.106997
vn 0.678174 -0.697827 0.230473
vn 0.797281 -0.594039 0.107053
vn 0.982656 -0.171568 0.070373
vn 0.962564 0.267450 0.044066
vn 0.127015 0.081726 0.988528
vn 0.147037 -0.074159 0.986347
vn 0.189330 -0.278318 0.941644
vn 0.474303 -0.431335 0.767455
vn 0.090513 0.861609 -0.499437
vn 0.126774 0.815026 -0.565385
vn 0.409236 0.538934 -0.736258
vn 0.254885 0.906989 -0.335268
vn 0.660777 0.691662 -0.291509
vn 0.341625 0.936920 -0.073977
vn 0.730368 0.676411 0.095034
vn 0.304633 0.926473 -0.221013
vn 0.322744 0.901033 -0.289786
vn 0.081908 0.977522 -0.194272
vn 0.122011 0.834912 -0.536690
vn -0.275998 0.756462 -0.592950
vn -0.172240 0.700252 -0.692806
vn -0.467530 0.634095 -0.615906
vn 0.088317 0.787102 0.610468
vn 0.076417 0.785774 0.613775
vn 0.438920 0.554220 0.707241
vn 0.802928 0.480780 0.352360
vn -0.055054 -0.632211 -0.772838
vn 0.083495 -0.899285 -0.429318
vn 0.357480 -0.878228 -0.317685
vn 0.626113 -0.772356 -0.106997
vn -0.642572 0.464351 -0.609491
vn -0.820446 0.428290 -0.378729
vn -0.874836 -0.036500 -0.483043
vn -0.924086 0.090883 -0.371221
vn -0.885265 -0.390691 -0.252322
vn -0.874832 -0.484383 0.006531
vn -0.236634 -0.880923 -0.409852
vn 0.013367 -0.907853 -0.419075
vn 0.399833 -0.838300 -0.370658
vn 0.455314 -0.878219 -0.146360
vn 0.518375 0.148805 -0.842107
vn 0.894106 0.150147 -0.421937
vn 0.876337 -0.323606 -0.356809
vn 0.982656 -0.171568 0.070373
vn 0.566518 -0.185483 -0.802903
vn 0.527828 -0.599849 -0.601314
vn -0.176515 -0.437137 0.881903
vn 0.001648 -0.342580 0.939487
vn 0.079958 -0.214361 0.973476
vn -0.715589 -0.678907 0.164371
vn -0.874832 -0.484383 0.006531
vn -0.924823 0.079408 0.372017
vn -0.969444 0.125430 -0.210820
vn -0.667185 0.720042 -0.190799
vn -0.328004 0.944033 -0.034851
vn -0.115659 0.981791 0.150693
vn -0.640802 0.656182 -0.398495
vn -0.748100 0.623468 -0.227232
vn 0.397525 0.856940 0.328066
vn 0.762076 0.624810 0.169859
vn -0.969444 0.125430 -0.210820
vn -0.769096 0.554133 -0.318478
vn -0.772415 0.631726 -0.065553
vn 0.962564 0.267450 0.044066
vn 0.079958 -0.214361 0.973476
vn 0.168212 -0.230712 0.958372
vn 0.001648 -0.342580 0.939487
vn 0.636239 -0.638985 0.432317
vn 0.322744 0.901033 -0.289786
vn 0.304633 0.926473 -0.221013
vn -0.176515 -0.437137 0.881903

g polygon0
s 1
usemtl mat1
f 1/1/1 2/2/2 3/3/3
f 1/1/1 4/4/4 2/2/2
f 5/5/5 4/4/4 1/1/1
f 5/5/5 6/6/6 4/4/4
f 7/7/7 6/6/6 5/5/5
f 7/7/7 8/8/8 6/6/6
f 9/9/9 8/8/8 7/7/7
f 9/9/9 10/10/10 8/8/8
f 11/11/11 10/10/10 9/9/9
f 11/11/11 12/12/12 10/10/10
f 13/13/13 12/12/12 11/11/11
f 13/13/13 14/14/14 12/12/12
f 15/15/15 14/14/14 13/13/13
f 15/15/15 16/16/16 14/14/14
f 17/17/17 16/16/16 15/15/15
f 17/17/17 18/18/18 16/16/16
f 19/19/19 20/20/20 21/21/21
f 19/19/19 22/22/22 20/20/20
f 23/23/23 22/22/22 19/19/19
f 23/23/23 24/24/24 22/22/22
f 25/25/25 24/24/24 23/23/23
f 25/25/25 26/26/26 24/24/24
f 27/27/27 26/26/26 25/25/25
f 27/27/27 28/28/28 26/26/26
f 29/29/29 28/28/28 27/27/27
f 29/29/29 30/30/30 28/28/28
f 31/31/31 30/30/30 29/29/29
f 31/31/31 32/32/32 30/30/30
f 33/33/33 32/32/32 31/31/31
f 33/33/33 34/34/34 32/32/32
f 35/35/35 34/34/34 33/33/33
f 36/36/36 37/37/37 38/38/38
f 36/36/36 39/39/39 37/37/37
f 40/40/40 39/39/39 36/36/36
f 40/40/40 41/41/41 39/39/39
f 42/42/42 41/41/41 40/40/40
f 42/42/42 43/43/43 41/41/41
f 44/44/44 43/43/43 42/42/42
f 44/44/44 45/45/45 43/43/43
f 46/46/46 45/45/45 44/44/44
f 46/46/46 47/47/47 45/45/45
f 48/48/48 47/47/47 46/46/46
f 48/48/48 49/49/49 47/47/47
f 6/6/6 49/49/49 48/48/48
f 6/6/6 8/8/8 49/49/49
f 50/50/50 16/16/16 18/18/18
f 50/50/50 51/51/51 16/16/16
f 52/52/52 51/51/51 50/50/50
f 52/52/52 53/53/53 51/51/51
f 54/54/54 53/53/53 52/52/52
f 54/54/54 55/55/55 53/53/53
f 56/56/56 55/55/55 54/54/54
f 56/56/56 57/57/57 55/55/55
f 58/58/58 57/57/57 56/56/56
f 58/58/58 59/59/59 57/57/57
f 60/60/60 59/59/59 58/58/58
f 60/60/60 61/61/61 59/59/59
f 62/62/62 61/61/61 60/60/60
f 63/63/63 64/64/64 23/23/23
f 63/63/63 65/65/65 64/64/64
f 66/66/66 65/65/65 63/63/63
f 66/66/66 67/67/67 65/65/65
f 68/68/68 67/67/67 66/66/66
f 68/68/68 69/69/69 67/67/67
f 70/70/70 69/69/69 68/68/68
f 70/70/70 71/71/71 69/69/69
f 72/72/72 71/71/71 70/70/70
f 72/72/72 73/73/73 71/71/71
f 74/74/74 75/75/75 76/76/76
f 74/74/74 77/77/77 75/75/75
f 78/78/78 77/77/77 74/74/74
f 78/78/78 79/79/79 77/77/77
f 80/80/80 79/79/79 78/78/78
f 80/80/80 81/81/81 79/79/79
f 19/19/19 81/81/81 80/80/80
f 19/19/19 82/82/82 81/81/81
f 21/21/21 82/82/82 19/19/19
f 83/83/83 84/84/84 85/85/85
f 83/83/83 86/86/86 84/84/84
f 87/87/87 86/86/86 83/83/83
f 87/87/87 17/17/17 86/86/86
f 88/88/88 17/17/17 87/87/87
f 88/88/88 18/18/18 17/17/17
f 89/89/89 18/18/18 88/88/88
f 89/89/89 90/90/90 18/18/18
f 91/91/91 92/92/92 93/93/93
f 91/91/91 94/94/94 92/92/92
f 95/95/95 94/94/94 91/91/91
f 95/95/95 72/72/72 94/94/94
f 96/96/96 72/72/72 95/95/95
f 96/96/96 73/73/73 72/72/72
f 97/97/97 73/73/73 96/96/96
f 97/97/97 35/35/35 73/73/73
f 80/80/80 23/23/23 19/19/19
f 80/80/80 63/63/63 23/23/23
f 98/98/98 63/63/63 80/80/80
f 98/98/98 66/66/66 63/63/63
f 99/99/99 66/66/66 98/98/98
f 99/99/99 68/68/68 66/66/66
f 100/100/100 68/68/68 99/99/99
f 100/100/100 101/101/101 68/68/68
f 102/102/102 18/18/18 90/90/90
f 102/102/102 50/50/50 18/18/18
f 103/103/103 50/50/50 102/102/102
f 103/103/103 104/104/104 50/50/50
f 105/105/105 104/104/104 103/103/103
f 105/105/105 106/106/106 104/104/104
f 107/107/107 106/106/106 105/105/105
f 107/107/107 108/108/108 106/106/106
f 109/109/109 32/32/32 34/34/34
f 109/109/109 30/30/30 32/32/32
f 110/110/110 30/30/30 109/109/109
f 110/110/110 111/111/111 30/30/30
f 112/112/112 111/111/111 110/110/110
f 112/112/112 113/113/113 111/111/111
f 114/114/114 113/113/113 112/112/112
f 114/114/114 115/115/115 113/113/113
f 65/65/65 116/116/116 64/64/64
f 65/65/65 117/117/117 116/116/116
f 67/67/67 117/117/117 65/65/65
f 67/67/67 118/118/118 117/117/117
f 69/69/69 118/118/118 67/67/67
f 69/69/69 119/119/119 118/118/118
f 71/71/71 119/119/119 69/69/69
f 71/71/71 73/73/73 119/119/119
f 120/120/120 10/10/10 12/12/12
f 120/120/120 121/121/121 10/10/10
f 57/57/57 121/121/121 120/120/120
f 57/57/57 122/122/122 121/121/121
f 59/59/59 122/122/122 57/57/57
f 59/59/59 123/123/123 122/122/122
f 61/61/61 123/123/123 59/59/59
f 124/124/124 86/86/86 17/17/17
f 124/124/124 125/125/125 86/86/86
f 126/126/126 125/125/125 124/124/124
f 126/126/126 127/127/127 125/125/125
f 128/128/128 127/127/127 126/126/126
f 128/128/128 129/129/129 127/127/127
f 5/5/5 129/129/129 128/128/128
f 130/130/130 8/8/8 10/10/10
f 130/130/130 49/49/49 8/8/8
f 131/131/131 49/49/49 130/130/130
f 131/131/131 47/47/47 49/49/49
f 132/132/132 47/47/47 131/131/131
f 132/132/132 133/133/133 47/47/47
f 104/104/104 52/52/52 50/50/50
f 104/104/104 134/134/134 52/52/52
f 135/135/135 134/134/134 104/104/104
f 135/135/135 136/136/136 134/134/134
f 137/137/137 136/136/136 135/135/135
f 137/137/137 62/62/62 136/136/136
f 134/134/134 54/54/54 52/52/52
f 134/134/134 138/138/138 54/54/54
f 136/136/136 138/138/138 134/134/134
f 136/136/136 139/139/139 138/138/138
f 60/60/60 139/139/139 136/136/136
f 60/60/60 58/58/58 139/139/139
f 121/121/121 130/130/130 10/10/10
f 121/121/121 131/131/131 130/130/130
f 122/122/122 131/131/131 121/121/121
f 122/122/122 132/132/132 131/131/131
f 123/123/123 132/132/132 122/122/122
f 123/123/123 133/133/133 132/132/132
f 2/2/2 140/140/140 3/3/3
f 2/2/2 141/141/141 140/140/140
f 36/36/36 141/141/141 2/2/2
f 36/36/36 142/142/142 141/141/141
f 38/38/38 142/142/142 36/36/36
f 36/36/36 42/42/42 40/40/40
f 36/36/36 44/44/44 42/42/42
f 2/2/2 44/44/44 36/36/36
f 2/2/2 46/46/46 44/44/44
f 4/4/4 46/46/46 2/2/2
f 75/75/75 143/143/143 76/76/76
f 75/75/75 144/144/144 143/143/143
f 145/145/145 144/144/144 75/75/75
f 145/145/145 146/146/146 144/144/144
f 82/82/82 146/146/146 145/145/145
f 24/24/24 20/20/20 22/22/22
f 24/24/24 147/147/147 20/20/20
f 148/148/148 147/147/147 24/24/24
f 148/148/148 113/113/113 147/147/147
f 111/111/111 113/113/113 148/148/148
f 64/64/64 25/25/25 23/23/23
f 64/64/64 27/27/27 25/25/25
f 116/116/116 27/27/27 64/64/64
f 116/116/116 29/29/29 27/27/27
f 31/31/31 29/29/29 116/116/116
f 111/111/111 28/28/28 30/30/30
f 111/111/111 149/149/149 28/28/28
f 148/148/148 149/149/149 111/111/111
f 148/148/148 26/26/26 149/149/149
f 24/24/24 26/26/26 148/148/148
f 128/128/128 7/7/7 5/5/5
f 128/128/128 9/9/9 7/7/7
f 126/126/126 9/9/9 128/128/128
f 126/126/126 11/11/11 9/9/9
f 13/13/13 11/11/11 126/126/126
f 53/53/53 12/12/12 14/14/14
f 53/53/53 120/120/120 12/12/12
f 55/55/55 120/120/120 53/53/53
f 55/55/55 57/57/57 120/120/120
f 43/43/43 123/123/123 41/41/41
f 43/43/43 133/133/133 123/123/123
f 45/45/45 133/133/133 43/43/43
f 45/45/45 47/47/47 133/133/133
f 150/150/150 113/113/113 115/115/115
f 150/150/150 147/147/147 113/113/113
f 151/151/151 147/147/147 150/150/150
f 151/151/151 20/20/20 147/147/147
f 117/117/117 31/31/31 116/116/116
f 117/117/117 152/152/152 31/31/31
f 118/118/118 152/152/152 117/117/117
f 118/118/118 119/119/119 152/152/152
f 152/152/152 33/33/33 31/31/31
f 152/152/152 153/153/153 33/33/33
f 119/119/119 153/153/153 152/152/152
f 119/119/119 73/73/73 153/153/153
f 79/79/79 75/75/75 77/77/77
f 79/79/79 145/145/145 75/75/75
f 81/81/81 145/145/145 79/79/79
f 81/81/81 82/82/82 145/145/145
f 154/154/154 127/127/127 129/129/129
f 154/154/154 155/155/155 127/127/127
f 156/156/156 155/155/155 154/154/154
f 156/156/156 84/84/84 155/155/155
f 135/135/135 157/157/157 137/137/137
f 135/135/135 106/106/106 157/157/157
f 104/104/104 106/106/106 135/135/135
f 124/124/124 13/13/13 126/126/126
f 124/124/124 15/15/15 13/13/13
f 17/17/17 15/15/15 124/124/124
f 139/139/139 54/54/54 138/138/138
f 139/139/139 56/56/56 54/54/54
f 58/58/58 56/56/56 139/139/139
f 98/98/98 158/158/158 159/159/159
f 98/98/98 160/160/160 158/158/158
f 78/78/78 160/160/160 98/98/98
f 161/161/161 92/92/92 94/94/94
f 161/161/161 101/101/101 92/92/92
f 68/68/68 101/101/101 161/161/161
f 161/161/161 70/70/70 68/68/68
f 161/161/161 72/72/72 70/70/70
f 94/94/94 72/72/72 161/161/161
f 99/99/99 159/159/159 100/100/100
f 99/99/99 98/98/98 159/159/159
f 162/162/162 102/102/102 90/90/90
f 162/162/162 163/163/163 102/102/102
f 51/51/51 14/14/14 16/16/16
f 51/51/51 53/53/53 14/14/14
f 86/86/86 155/155/155 84/84/84
f 86/86/86 125/125/125 155/155/155
f 102/102/102 105/105/105 103/103/103
f 102/102/102 163/163/163 105/105/105
f 48/48/48 4/4/4 6/6/6
f 48/48/48 46/46/46 4/4/4
f 153/153/153 35/35/35 33/33/33
f 153/153/153 73/73/73 35/35/35
f 164/164/164 78/78/78 74/74/74
f 164/164/164 160/160/160 78/78/78
f 149/149/149 26/26/26 28/28/28
f 80/80/80 78/78/78 98/98/98
f 62/62/62 60/60/60 136/136/136
f 105/105/105 163/163/163 107/107/107
f 108/108/108 157/157/157 106/106/106
f 125/125/125 127/127/127 155/155/155

